# xmcd
#
# Track frame offsets: 
#        150
#        33820
#        55761
#        92160
#        130949
#        160650
#        190555
#        231548
#        261149
#
# Disc length: 3660 seconds
#
# Revision: 2
# Processed by: cddbd v1.5.1PL2 Copyright (c) Steve Scherf et al.
# Submitted via: ExactAudioCopy v0.95b2
#
DISCID=6d0e4a09
DTITLE=Musicbank - Icecaps and Deserts
DYEAR=2005
DGENRE=Ambient
TTITLE0=The Journey North
TTITLE1=Sahara Dawn
TTITLE2=Climbing The Glacifier
TTITLE3=Dunk and Water
TTITLE4=Polar Sun
TTITLE5=Oasis
TTITLE6=Ice Dance
TTITLE7=Sandstorm
TTITLE8=On The White Plain
EXTD=Made by www.hightechnology.ro
EXTT0=
EXTT1=
EXTT2=
EXTT3=
EXTT4=
EXTT5=
EXTT6=
EXTT7=
EXTT8=
PLAYORDER=
